<svg width="131" height="37" viewBox="0 0 131 37" fill="none" xmlns="http://www.w3.org/2000/svg">
<path d="M42.1159 27H45.5919L46.6699 23.788H53.2699L54.3479 27H57.9119L52.4999 10.962H47.5059L42.1159 27ZM47.5059 21.038L49.0899 16.242L49.9039 13.756H50.0359L50.8499 16.242L52.4339 21.038H47.5059ZM57.8839 27H71.5019V23.942H62.7019L71.3259 13.734V10.962H58.2359V14.042H66.4419L57.8839 24.206V27ZM79.8592 27.22C81.5898 27.22 83.0345 26.89 84.1932 26.23C85.3518 25.57 86.2245 24.6313 86.8112 23.414C87.3978 22.182 87.6912 20.7227 87.6912 19.036V18.97C87.6912 17.1807 87.3685 15.6773 86.7232 14.46C86.0778 13.2427 85.1685 12.326 83.9952 11.71C82.8365 11.0793 81.4578 10.764 79.8592 10.764C78.2752 10.764 76.8965 11.0793 75.7232 11.71C74.5498 12.326 73.6405 13.2427 72.9952 14.46C72.3498 15.6773 72.0272 17.1807 72.0272 18.97V19.036C72.0272 20.7227 72.3205 22.182 72.9072 23.414C73.4938 24.6313 74.3665 25.57 75.5252 26.23C76.6985 26.89 78.1432 27.22 79.8592 27.22ZM79.8592 24.096C78.5978 24.096 77.6078 23.766 76.8892 23.106C76.1705 22.4313 75.8112 21.478 75.8112 20.246V17.738C75.8112 16.6087 76.1412 15.6847 76.8012 14.966C77.4758 14.2473 78.4952 13.888 79.8592 13.888C81.2232 13.888 82.2352 14.2473 82.8952 14.966C83.5698 15.6847 83.9072 16.6087 83.9072 17.738V20.246C83.9072 21.478 83.5478 22.4313 82.8292 23.106C82.1105 23.766 81.1205 24.096 79.8592 24.096ZM101.178 14.042V10.962H87.9995V14.042H92.7955V27H96.3815V14.042H101.178ZM114.652 14.042V10.962H101.474V14.042H106.27V27H109.856V14.042H114.652ZM122.194 27.22C123.924 27.22 125.369 26.89 126.528 26.23C127.686 25.57 128.559 24.6313 129.146 23.414C129.732 22.182 130.026 20.7227 130.026 19.036V18.97C130.026 17.1807 129.703 15.6773 129.058 14.46C128.412 13.2427 127.503 12.326 126.33 11.71C125.171 11.0793 123.792 10.764 122.194 10.764C120.61 10.764 119.231 11.0793 118.058 11.71C116.884 12.326 115.975 13.2427 115.33 14.46C114.684 15.6773 114.362 17.1807 114.362 18.97V19.036C114.362 20.7227 114.655 22.182 115.242 23.414C115.828 24.6313 116.701 25.57 117.86 26.23C119.033 26.89 120.478 27.22 122.194 27.22ZM122.194 24.096C120.932 24.096 119.942 23.766 119.224 23.106C118.505 22.4313 118.146 21.478 118.146 20.246V17.738C118.146 16.6087 118.476 15.6847 119.136 14.966C119.81 14.2473 120.83 13.888 122.194 13.888C123.558 13.888 124.57 14.2473 125.23 14.966C125.904 15.6847 126.242 16.6087 126.242 17.738V20.246C126.242 21.478 125.882 22.4313 125.164 23.106C124.445 23.766 123.455 24.096 122.194 24.096Z" fill="#0000FF"/>
<g clip-path="url(#clip0_209_23)">
<path d="M28.0664 7.07983H26.3721C25.3042 7.07983 24.4385 7.94552 24.4385 9.01339V13.4984C24.4385 14.5663 25.3042 15.432 26.3721 15.432H28.0664C29.1343 15.432 30 14.5663 30 13.4984V9.01339C30 7.94552 29.1343 7.07983 28.0664 7.07983Z" fill="#0000FF"/>
<path d="M28.0664 22.2095H26.3721C25.3042 22.2095 24.4385 23.0752 24.4385 24.143V28.6281C24.4385 29.6959 25.3042 30.5616 26.3721 30.5616H28.0664C29.1343 30.5616 30 29.6959 30 28.6281V24.143C30 23.0752 29.1343 22.2095 28.0664 22.2095Z" fill="#0000FF"/>
<path d="M3.46844 7.07983H1.93355C0.865682 7.07983 0 7.94552 0 9.01339V13.4984C0 14.5663 0.865682 15.432 1.93355 15.432H3.46844C4.53631 15.432 5.40199 14.5663 5.40199 13.4984V9.01339C5.40199 7.94552 4.53631 7.07983 3.46844 7.07983Z" fill="#0000FF"/>
<path d="M3.46844 22.2095H1.93355C0.865682 22.2095 0 23.0752 0 24.143V28.6281C0 29.6959 0.865682 30.5616 1.93355 30.5616H3.46844C4.53631 30.5616 5.40199 29.6959 5.40199 28.6281V24.143C5.40199 23.0752 4.53631 22.2095 3.46844 22.2095Z" fill="#0000FF"/>
<path d="M27.6678 13.9767C27.6678 6.80989 21.8579 1 14.691 1C7.52418 1 1.71429 6.80989 1.71429 13.9767V23.6644C1.71429 30.8313 7.52418 36.6412 14.691 36.6412C21.8579 36.6412 27.6678 30.8313 27.6678 23.6644V13.9767Z" fill="#0000FF"/>
<path d="M14.7707 9.31224L14.7109 9.37204L14.6711 9.33218L14.7309 9.25244L14.7707 9.31224Z" fill="white"/>
<path d="M15.6677 30.8605H13.6744C13.6744 30.402 13.5747 20.0166 4.90363 19.9768V17.9834C13.6545 17.9834 13.7741 7.23923 13.7741 6.78076H14.6511H15.7674C15.7674 8.65452 16.186 17.9635 24.4584 17.9635V19.9568C15.9468 19.9568 15.6877 30.422 15.6877 30.8605H15.6677ZM9.46841 19C12.1794 20.3356 13.794 22.8073 14.7109 25.3389C15.6279 22.8073 17.2624 20.3356 19.8937 18.9801C17.2624 17.7044 15.6079 15.3323 14.691 12.6412C14.6113 12.8406 14.5315 13.0598 14.4518 13.2592C13.3555 15.9901 11.6611 17.9236 9.46841 19Z" fill="white"/>
</g>
<defs>
<clipPath id="clip0_209_23">
<rect width="30" height="35.6412" fill="white" transform="translate(0 1)"/>
</clipPath>
</defs>
</svg>
